<svg xmlns="http://www.w3.org/2000/svg" viewBox="0 0 256 256" fill="none">
  <defs>
    <linearGradient id="bg" x1="0" y1="0" x2="1" y2="1">
      <stop offset="0" stop-color="#6366F1" stop-opacity="0.35"/>
      <stop offset="1" stop-color="#0B1220" stop-opacity="0"/>
    </linearGradient>
  </defs>
  <rect x="16" y="16" width="224" height="224" rx="40" fill="#0B1220"/>
  <rect x="16" y="16" width="224" height="224" rx="40" fill="url(#bg)"/>
  <path d="M58 156c26 10 48 6 67-11 10-9 18-11 29-7l48 18c8 3 14 9 16 18l2 10H56v-18c0-5 1-9 2-10z" fill="rgba(255,255,255,0.10)" stroke="rgba(255,255,255,0.16)" stroke-width="6" stroke-linejoin="round"/>
  <path d="M78 118c14 13 33 20 57 20" stroke="rgba(255,255,255,0.22)" stroke-width="8" stroke-linecap="round"/>
  <path d="M90 108l8 7M110 102l8 7M130 100l8 7" stroke="rgba(255,255,255,0.18)" stroke-width="6" stroke-linecap="round"/>
</svg>


