<svg xmlns="http://www.w3.org/2000/svg" viewBox="0 0 1200 600" fill="none">
  <defs>
    <linearGradient id="g1" x1="0" y1="0" x2="1" y2="1">
      <stop offset="0" stop-color="#6366F1" stop-opacity="0.35"/>
      <stop offset="0.45" stop-color="#38BDF8" stop-opacity="0.28"/>
      <stop offset="1" stop-color="#34D399" stop-opacity="0.20"/>
    </linearGradient>
    <radialGradient id="r1" cx="0" cy="0" r="1" gradientUnits="userSpaceOnUse" gradientTransform="translate(260 120) rotate(35) scale(620 520)">
      <stop stop-color="#A5B4FC" stop-opacity="0.85"/>
      <stop offset="1" stop-color="#0B1220" stop-opacity="0"/>
    </radialGradient>
    <radialGradient id="r2" cx="0" cy="0" r="1" gradientUnits="userSpaceOnUse" gradientTransform="translate(980 140) rotate(140) scale(640 520)">
      <stop stop-color="#7DD3FC" stop-opacity="0.85"/>
      <stop offset="1" stop-color="#0B1220" stop-opacity="0"/>
    </radialGradient>
    <filter id="blur" x="-50%" y="-50%" width="200%" height="200%">
      <feGaussianBlur stdDeviation="30"/>
    </filter>
  </defs>

  <rect width="1200" height="600" rx="36" fill="#0B1220"/>
  <rect width="1200" height="600" rx="36" fill="url(#g1)"/>
  <g filter="url(#blur)">
    <circle cx="260" cy="160" r="220" fill="url(#r1)"/>
    <circle cx="980" cy="180" r="240" fill="url(#r2)"/>
  </g>

  <g opacity="0.35">
    <path d="M80 460C200 380 320 380 440 460C560 540 680 540 800 460C920 380 1040 380 1120 420" stroke="#FFFFFF" stroke-opacity="0.18" stroke-width="2"/>
    <path d="M80 500C200 420 320 420 440 500C560 580 680 580 800 500C920 420 1040 420 1120 460" stroke="#FFFFFF" stroke-opacity="0.14" stroke-width="2"/>
  </g>

  <g>
    <rect x="780" y="230" width="320" height="210" rx="28" fill="rgba(255,255,255,0.06)" stroke="rgba(255,255,255,0.12)"/>
    <rect x="820" y="270" width="240" height="14" rx="7" fill="rgba(255,255,255,0.18)"/>
    <rect x="820" y="300" width="200" height="14" rx="7" fill="rgba(255,255,255,0.14)"/>
    <rect x="820" y="332" width="170" height="14" rx="7" fill="rgba(255,255,255,0.12)"/>
    <rect x="820" y="372" width="140" height="40" rx="16" fill="rgba(255,255,255,0.16)"/>
  </g>
</svg>


